<mxfile host="app.diagrams.net" modified="2024-04-30T12:49:10.897Z" agent="Mozilla/5.0 (Windows NT 10.0; Win64; x64) AppleWebKit/537.36 (KHTML, like Gecko) Chrome/122.0.0.0 YaBrowser/24.4.0.0 Safari/537.36" etag="FL956XpZEUMusjzvMyKX" version="24.3.1" type="device">
  <diagram name="Страница — 1" id="52FzQXawPsFQxssV8gcq">
    <mxGraphModel dx="3077" dy="1431" grid="1" gridSize="10" guides="1" tooltips="1" connect="1" arrows="1" fold="1" page="1" pageScale="1" pageWidth="827" pageHeight="1169" math="0" shadow="0">
      <root>
        <mxCell id="0" />
        <mxCell id="1" parent="0" />
        <mxCell id="yEMP4LMnTPeaO3cNS4Mg-15" style="edgeStyle=orthogonalEdgeStyle;rounded=0;orthogonalLoop=1;jettySize=auto;html=1;exitX=0.5;exitY=1;exitDx=0;exitDy=0;entryX=0.5;entryY=0;entryDx=0;entryDy=0;" parent="1" source="yEMP4LMnTPeaO3cNS4Mg-1" target="yEMP4LMnTPeaO3cNS4Mg-6" edge="1">
          <mxGeometry relative="1" as="geometry" />
        </mxCell>
        <mxCell id="yEMP4LMnTPeaO3cNS4Mg-1" value="Начало" style="ellipse;whiteSpace=wrap;html=1;" parent="1" vertex="1">
          <mxGeometry x="68.75" y="20" width="147.5" height="60" as="geometry" />
        </mxCell>
        <mxCell id="yEMP4LMnTPeaO3cNS4Mg-17" style="edgeStyle=orthogonalEdgeStyle;rounded=0;orthogonalLoop=1;jettySize=auto;html=1;exitX=0.5;exitY=1;exitDx=0;exitDy=0;entryX=0.5;entryY=0;entryDx=0;entryDy=0;" parent="1" source="yEMP4LMnTPeaO3cNS4Mg-2" target="yEMP4LMnTPeaO3cNS4Mg-7" edge="1">
          <mxGeometry relative="1" as="geometry" />
        </mxCell>
        <mxCell id="yEMP4LMnTPeaO3cNS4Mg-2" value="&lt;font style=&quot;font-size: 10px;&quot;&gt;int count = numberRequiredString(array);&lt;/font&gt;" style="shape=process;whiteSpace=wrap;html=1;backgroundOutline=1;" parent="1" vertex="1">
          <mxGeometry x="45" y="202" width="195" height="60" as="geometry" />
        </mxCell>
        <mxCell id="yEMP4LMnTPeaO3cNS4Mg-16" style="edgeStyle=orthogonalEdgeStyle;rounded=0;orthogonalLoop=1;jettySize=auto;html=1;exitX=0.5;exitY=1;exitDx=0;exitDy=0;entryX=0.5;entryY=0;entryDx=0;entryDy=0;" parent="1" source="yEMP4LMnTPeaO3cNS4Mg-6" target="yEMP4LMnTPeaO3cNS4Mg-2" edge="1">
          <mxGeometry relative="1" as="geometry" />
        </mxCell>
        <mxCell id="yEMP4LMnTPeaO3cNS4Mg-6" value="&lt;font style=&quot;font-size: 10px;&quot;&gt;string[] array = [&quot;Russia&quot;, &quot;Denmark&quot;, &quot;Florida&quot;, &quot;123&quot;, &quot;Hello&quot;, &quot;2&quot;, &quot;world&quot;, &quot;:-)&quot;];&lt;/font&gt;" style="rounded=0;whiteSpace=wrap;html=1;" parent="1" vertex="1">
          <mxGeometry x="45" y="110" width="195" height="60" as="geometry" />
        </mxCell>
        <mxCell id="yEMP4LMnTPeaO3cNS4Mg-18" style="edgeStyle=orthogonalEdgeStyle;rounded=0;orthogonalLoop=1;jettySize=auto;html=1;exitX=0.5;exitY=1;exitDx=0;exitDy=0;entryX=0.5;entryY=0;entryDx=0;entryDy=0;" parent="1" source="yEMP4LMnTPeaO3cNS4Mg-7" target="yEMP4LMnTPeaO3cNS4Mg-9" edge="1">
          <mxGeometry relative="1" as="geometry" />
        </mxCell>
        <mxCell id="yEMP4LMnTPeaO3cNS4Mg-7" value="&lt;font style=&quot;font-size: 10px;&quot;&gt;string[] result = resultArrayString(array, count);&lt;/font&gt;" style="shape=process;whiteSpace=wrap;html=1;backgroundOutline=1;" parent="1" vertex="1">
          <mxGeometry x="45" y="290" width="195" height="60" as="geometry" />
        </mxCell>
        <mxCell id="yEMP4LMnTPeaO3cNS4Mg-9" value="&lt;font style=&quot;&quot;&gt;&lt;span style=&quot;font-size: 10px;&quot;&gt;printArrayString(array);&lt;/span&gt;&lt;/font&gt;&lt;div&gt;&lt;font style=&quot;&quot;&gt;&lt;span style=&quot;background-color: initial; font-size: 10px;&quot;&gt;Console.Write(&quot; → &quot;);&lt;/span&gt;&lt;div style=&quot;&quot;&gt;&lt;span style=&quot;font-size: 10px;&quot;&gt;printArrayString(result);&lt;/span&gt;&lt;/div&gt;&lt;/font&gt;&lt;/div&gt;" style="shape=document;whiteSpace=wrap;html=1;boundedLbl=1;" parent="1" vertex="1">
          <mxGeometry x="45" y="380" width="195" height="120" as="geometry" />
        </mxCell>
        <mxCell id="yEMP4LMnTPeaO3cNS4Mg-13" value="Конец" style="ellipse;whiteSpace=wrap;html=1;" parent="1" vertex="1">
          <mxGeometry x="68.75" y="525" width="147.5" height="60" as="geometry" />
        </mxCell>
        <mxCell id="yEMP4LMnTPeaO3cNS4Mg-19" value="" style="endArrow=classic;html=1;rounded=0;entryX=0.5;entryY=0;entryDx=0;entryDy=0;exitX=0.5;exitY=0.849;exitDx=0;exitDy=0;exitPerimeter=0;" parent="1" source="yEMP4LMnTPeaO3cNS4Mg-9" target="yEMP4LMnTPeaO3cNS4Mg-13" edge="1">
          <mxGeometry width="50" height="50" relative="1" as="geometry">
            <mxPoint x="140" y="480" as="sourcePoint" />
            <mxPoint x="190" y="430" as="targetPoint" />
          </mxGeometry>
        </mxCell>
        <mxCell id="zhZFkxXowVwwZJKenLUL-6" style="edgeStyle=orthogonalEdgeStyle;rounded=0;orthogonalLoop=1;jettySize=auto;html=1;exitX=0.5;exitY=1;exitDx=0;exitDy=0;entryX=0.5;entryY=0;entryDx=0;entryDy=0;" parent="1" source="yEMP4LMnTPeaO3cNS4Mg-20" target="zhZFkxXowVwwZJKenLUL-1" edge="1">
          <mxGeometry relative="1" as="geometry" />
        </mxCell>
        <mxCell id="yEMP4LMnTPeaO3cNS4Mg-20" value="&lt;font style=&quot;font-size: 10px;&quot;&gt;int numberRequiredString(string[] inputArrayString)&lt;/font&gt;" style="ellipse;whiteSpace=wrap;html=1;" parent="1" vertex="1">
          <mxGeometry x="440" y="20" width="157.5" height="60" as="geometry" />
        </mxCell>
        <mxCell id="zhZFkxXowVwwZJKenLUL-7" style="edgeStyle=orthogonalEdgeStyle;rounded=0;orthogonalLoop=1;jettySize=auto;html=1;exitX=0.5;exitY=1;exitDx=0;exitDy=0;entryX=0.5;entryY=0;entryDx=0;entryDy=0;" parent="1" source="zhZFkxXowVwwZJKenLUL-1" target="zhZFkxXowVwwZJKenLUL-2" edge="1">
          <mxGeometry relative="1" as="geometry" />
        </mxCell>
        <mxCell id="zhZFkxXowVwwZJKenLUL-1" value="&lt;font style=&quot;font-size: 10px;&quot;&gt;int count = 0;&lt;/font&gt;" style="rounded=0;whiteSpace=wrap;html=1;" parent="1" vertex="1">
          <mxGeometry x="421.25" y="100" width="195" height="60" as="geometry" />
        </mxCell>
        <mxCell id="zhZFkxXowVwwZJKenLUL-8" style="edgeStyle=orthogonalEdgeStyle;rounded=0;orthogonalLoop=1;jettySize=auto;html=1;exitX=0.5;exitY=1;exitDx=0;exitDy=0;entryX=0.5;entryY=0;entryDx=0;entryDy=0;" parent="1" source="zhZFkxXowVwwZJKenLUL-2" target="zhZFkxXowVwwZJKenLUL-3" edge="1">
          <mxGeometry relative="1" as="geometry" />
        </mxCell>
        <mxCell id="zhZFkxXowVwwZJKenLUL-12" style="edgeStyle=orthogonalEdgeStyle;rounded=0;orthogonalLoop=1;jettySize=auto;html=1;exitX=1;exitY=0.5;exitDx=0;exitDy=0;entryX=0.5;entryY=0;entryDx=0;entryDy=0;" parent="1" source="zhZFkxXowVwwZJKenLUL-2" target="zhZFkxXowVwwZJKenLUL-5" edge="1">
          <mxGeometry relative="1" as="geometry">
            <Array as="points">
              <mxPoint x="660" y="232" />
              <mxPoint x="660" y="480" />
              <mxPoint x="519" y="480" />
            </Array>
          </mxGeometry>
        </mxCell>
        <mxCell id="zhZFkxXowVwwZJKenLUL-2" value="&lt;font style=&quot;font-size: 10px;&quot;&gt;foreach (string str in inputArrayString)&lt;/font&gt;" style="shape=hexagon;perimeter=hexagonPerimeter2;whiteSpace=wrap;html=1;fixedSize=1;" parent="1" vertex="1">
          <mxGeometry x="424.25" y="192" width="189" height="80" as="geometry" />
        </mxCell>
        <mxCell id="zhZFkxXowVwwZJKenLUL-9" style="edgeStyle=orthogonalEdgeStyle;rounded=0;orthogonalLoop=1;jettySize=auto;html=1;exitX=0.5;exitY=1;exitDx=0;exitDy=0;entryX=0.5;entryY=0;entryDx=0;entryDy=0;" parent="1" source="zhZFkxXowVwwZJKenLUL-3" target="zhZFkxXowVwwZJKenLUL-4" edge="1">
          <mxGeometry relative="1" as="geometry" />
        </mxCell>
        <mxCell id="zhZFkxXowVwwZJKenLUL-11" style="edgeStyle=orthogonalEdgeStyle;rounded=0;orthogonalLoop=1;jettySize=auto;html=1;exitX=0;exitY=0.5;exitDx=0;exitDy=0;" parent="1" source="zhZFkxXowVwwZJKenLUL-3" edge="1">
          <mxGeometry relative="1" as="geometry">
            <mxPoint x="380" y="340.04761904761904" as="targetPoint" />
          </mxGeometry>
        </mxCell>
        <mxCell id="zhZFkxXowVwwZJKenLUL-3" value="&lt;font style=&quot;font-size: 10px;&quot;&gt;if (str.Length &amp;lt;= 3)&lt;/font&gt;" style="rhombus;whiteSpace=wrap;html=1;" parent="1" vertex="1">
          <mxGeometry x="445.38" y="300" width="146.75" height="80" as="geometry" />
        </mxCell>
        <mxCell id="zhZFkxXowVwwZJKenLUL-10" style="edgeStyle=orthogonalEdgeStyle;rounded=0;orthogonalLoop=1;jettySize=auto;html=1;exitX=0;exitY=0.5;exitDx=0;exitDy=0;entryX=0;entryY=0.5;entryDx=0;entryDy=0;" parent="1" source="zhZFkxXowVwwZJKenLUL-4" target="zhZFkxXowVwwZJKenLUL-2" edge="1">
          <mxGeometry relative="1" as="geometry">
            <Array as="points">
              <mxPoint x="380" y="430" />
              <mxPoint x="380" y="232" />
            </Array>
          </mxGeometry>
        </mxCell>
        <mxCell id="zhZFkxXowVwwZJKenLUL-4" value="&lt;font style=&quot;font-size: 10px;&quot;&gt;count++;&lt;/font&gt;" style="rounded=0;whiteSpace=wrap;html=1;" parent="1" vertex="1">
          <mxGeometry x="421.26" y="400" width="195" height="60" as="geometry" />
        </mxCell>
        <mxCell id="zhZFkxXowVwwZJKenLUL-5" value="&lt;font style=&quot;font-size: 10px;&quot;&gt;return count;&lt;/font&gt;" style="ellipse;whiteSpace=wrap;html=1;" parent="1" vertex="1">
          <mxGeometry x="440" y="510" width="157.5" height="60" as="geometry" />
        </mxCell>
        <mxCell id="zhZFkxXowVwwZJKenLUL-13" value="yes" style="text;html=1;whiteSpace=wrap;overflow=hidden;rounded=0;align=left;" parent="1" vertex="1">
          <mxGeometry x="524" y="373" width="30" height="20" as="geometry" />
        </mxCell>
        <mxCell id="zhZFkxXowVwwZJKenLUL-14" value="no" style="text;html=1;whiteSpace=wrap;overflow=hidden;rounded=0;align=left;" parent="1" vertex="1">
          <mxGeometry x="427" y="319" width="30" height="20" as="geometry" />
        </mxCell>
        <mxCell id="zhZFkxXowVwwZJKenLUL-28" style="edgeStyle=orthogonalEdgeStyle;rounded=0;orthogonalLoop=1;jettySize=auto;html=1;exitX=0.5;exitY=1;exitDx=0;exitDy=0;entryX=0.5;entryY=0;entryDx=0;entryDy=0;" parent="1" source="zhZFkxXowVwwZJKenLUL-15" target="zhZFkxXowVwwZJKenLUL-16" edge="1">
          <mxGeometry relative="1" as="geometry" />
        </mxCell>
        <mxCell id="zhZFkxXowVwwZJKenLUL-15" value="&lt;font style=&quot;font-size: 10px;&quot;&gt;string[] resultArrayString(string[] inputArrayString, int count)&lt;/font&gt;" style="ellipse;whiteSpace=wrap;html=1;" parent="1" vertex="1">
          <mxGeometry x="941.29" y="20" width="157.5" height="60" as="geometry" />
        </mxCell>
        <mxCell id="zhZFkxXowVwwZJKenLUL-29" style="edgeStyle=orthogonalEdgeStyle;rounded=0;orthogonalLoop=1;jettySize=auto;html=1;exitX=0.5;exitY=1;exitDx=0;exitDy=0;entryX=0.5;entryY=0;entryDx=0;entryDy=0;" parent="1" source="zhZFkxXowVwwZJKenLUL-16" target="zhZFkxXowVwwZJKenLUL-19" edge="1">
          <mxGeometry relative="1" as="geometry" />
        </mxCell>
        <mxCell id="zhZFkxXowVwwZJKenLUL-16" value="&lt;font style=&quot;font-size: 10px;&quot;&gt;string[] result = new string[count];&lt;/font&gt;&lt;div&gt;&lt;font style=&quot;&quot;&gt;&lt;span style=&quot;font-size: 10px;&quot;&gt;count = 0;&lt;/span&gt;&lt;br&gt;&lt;/font&gt;&lt;/div&gt;" style="rounded=0;whiteSpace=wrap;html=1;" parent="1" vertex="1">
          <mxGeometry x="922.54" y="100" width="195" height="60" as="geometry" />
        </mxCell>
        <mxCell id="zhZFkxXowVwwZJKenLUL-17" style="edgeStyle=orthogonalEdgeStyle;rounded=0;orthogonalLoop=1;jettySize=auto;html=1;exitX=0.5;exitY=1;exitDx=0;exitDy=0;entryX=0.5;entryY=0;entryDx=0;entryDy=0;" parent="1" source="zhZFkxXowVwwZJKenLUL-19" target="zhZFkxXowVwwZJKenLUL-22" edge="1">
          <mxGeometry relative="1" as="geometry" />
        </mxCell>
        <mxCell id="zhZFkxXowVwwZJKenLUL-18" style="edgeStyle=orthogonalEdgeStyle;rounded=0;orthogonalLoop=1;jettySize=auto;html=1;exitX=1;exitY=0.5;exitDx=0;exitDy=0;entryX=0.5;entryY=0;entryDx=0;entryDy=0;" parent="1" source="zhZFkxXowVwwZJKenLUL-19" target="zhZFkxXowVwwZJKenLUL-25" edge="1">
          <mxGeometry relative="1" as="geometry">
            <Array as="points">
              <mxPoint x="1160.04" y="232" />
              <mxPoint x="1160.04" y="480" />
              <mxPoint x="1019.04" y="480" />
            </Array>
          </mxGeometry>
        </mxCell>
        <mxCell id="zhZFkxXowVwwZJKenLUL-19" value="&lt;font style=&quot;font-size: 10px;&quot;&gt;foreach (string str in inputArrayString)&lt;/font&gt;" style="shape=hexagon;perimeter=hexagonPerimeter2;whiteSpace=wrap;html=1;fixedSize=1;" parent="1" vertex="1">
          <mxGeometry x="924.29" y="192" width="189" height="80" as="geometry" />
        </mxCell>
        <mxCell id="zhZFkxXowVwwZJKenLUL-20" style="edgeStyle=orthogonalEdgeStyle;rounded=0;orthogonalLoop=1;jettySize=auto;html=1;exitX=0.5;exitY=1;exitDx=0;exitDy=0;entryX=0.5;entryY=0;entryDx=0;entryDy=0;" parent="1" source="zhZFkxXowVwwZJKenLUL-22" target="zhZFkxXowVwwZJKenLUL-24" edge="1">
          <mxGeometry relative="1" as="geometry" />
        </mxCell>
        <mxCell id="zhZFkxXowVwwZJKenLUL-21" style="edgeStyle=orthogonalEdgeStyle;rounded=0;orthogonalLoop=1;jettySize=auto;html=1;exitX=0;exitY=0.5;exitDx=0;exitDy=0;" parent="1" source="zhZFkxXowVwwZJKenLUL-22" edge="1">
          <mxGeometry relative="1" as="geometry">
            <mxPoint x="880.04" y="340.04761904761904" as="targetPoint" />
          </mxGeometry>
        </mxCell>
        <mxCell id="zhZFkxXowVwwZJKenLUL-22" value="&lt;font style=&quot;font-size: 10px;&quot;&gt;if (str.Length &amp;lt;= 3)&lt;/font&gt;" style="rhombus;whiteSpace=wrap;html=1;" parent="1" vertex="1">
          <mxGeometry x="945.42" y="300" width="146.75" height="80" as="geometry" />
        </mxCell>
        <mxCell id="zhZFkxXowVwwZJKenLUL-23" style="edgeStyle=orthogonalEdgeStyle;rounded=0;orthogonalLoop=1;jettySize=auto;html=1;exitX=0;exitY=0.5;exitDx=0;exitDy=0;entryX=0;entryY=0.5;entryDx=0;entryDy=0;" parent="1" source="zhZFkxXowVwwZJKenLUL-24" target="zhZFkxXowVwwZJKenLUL-19" edge="1">
          <mxGeometry relative="1" as="geometry">
            <Array as="points">
              <mxPoint x="880.04" y="430" />
              <mxPoint x="880.04" y="232" />
            </Array>
          </mxGeometry>
        </mxCell>
        <mxCell id="zhZFkxXowVwwZJKenLUL-24" value="&lt;div&gt;&lt;font style=&quot;font-size: 10px;&quot;&gt;result[count] = str;&lt;/font&gt;&lt;/div&gt;&lt;div style=&quot;text-align: left;&quot;&gt;&lt;font style=&quot;font-size: 10px;&quot;&gt;count++;&lt;/font&gt;&lt;/div&gt;" style="rounded=0;whiteSpace=wrap;html=1;" parent="1" vertex="1">
          <mxGeometry x="921.3" y="400" width="195" height="60" as="geometry" />
        </mxCell>
        <mxCell id="zhZFkxXowVwwZJKenLUL-25" value="&lt;font style=&quot;font-size: 10px;&quot;&gt;return result;&lt;/font&gt;" style="ellipse;whiteSpace=wrap;html=1;" parent="1" vertex="1">
          <mxGeometry x="940.04" y="510" width="157.5" height="60" as="geometry" />
        </mxCell>
        <mxCell id="zhZFkxXowVwwZJKenLUL-26" value="yes" style="text;html=1;whiteSpace=wrap;overflow=hidden;rounded=0;align=left;" parent="1" vertex="1">
          <mxGeometry x="1024.04" y="373" width="30" height="20" as="geometry" />
        </mxCell>
        <mxCell id="zhZFkxXowVwwZJKenLUL-27" value="no" style="text;html=1;whiteSpace=wrap;overflow=hidden;rounded=0;align=left;" parent="1" vertex="1">
          <mxGeometry x="927.04" y="319" width="30" height="20" as="geometry" />
        </mxCell>
        <mxCell id="zhZFkxXowVwwZJKenLUL-30" style="edgeStyle=orthogonalEdgeStyle;rounded=0;orthogonalLoop=1;jettySize=auto;html=1;exitX=0.5;exitY=1;exitDx=0;exitDy=0;entryX=0.5;entryY=0;entryDx=0;entryDy=0;" parent="1" source="zhZFkxXowVwwZJKenLUL-31" edge="1">
          <mxGeometry relative="1" as="geometry">
            <mxPoint x="1471.2900000000002" y="100" as="targetPoint" />
          </mxGeometry>
        </mxCell>
        <mxCell id="zhZFkxXowVwwZJKenLUL-31" value="&lt;font style=&quot;font-size: 10px;&quot;&gt;void printArrayString(string[] arrayStr)&lt;/font&gt;" style="ellipse;whiteSpace=wrap;html=1;" parent="1" vertex="1">
          <mxGeometry x="1392.54" y="20" width="157.5" height="60" as="geometry" />
        </mxCell>
        <mxCell id="zhZFkxXowVwwZJKenLUL-32" style="edgeStyle=orthogonalEdgeStyle;rounded=0;orthogonalLoop=1;jettySize=auto;html=1;exitX=0.5;exitY=1;exitDx=0;exitDy=0;entryX=0.5;entryY=0;entryDx=0;entryDy=0;" parent="1" target="zhZFkxXowVwwZJKenLUL-36" edge="1">
          <mxGeometry relative="1" as="geometry">
            <mxPoint x="1471.2900000000002" y="160" as="sourcePoint" />
          </mxGeometry>
        </mxCell>
        <mxCell id="zhZFkxXowVwwZJKenLUL-34" style="edgeStyle=orthogonalEdgeStyle;rounded=0;orthogonalLoop=1;jettySize=auto;html=1;exitX=0.5;exitY=1;exitDx=0;exitDy=0;entryX=0.5;entryY=0;entryDx=0;entryDy=0;" parent="1" source="zhZFkxXowVwwZJKenLUL-36" target="zhZFkxXowVwwZJKenLUL-39" edge="1">
          <mxGeometry relative="1" as="geometry" />
        </mxCell>
        <mxCell id="zhZFkxXowVwwZJKenLUL-35" style="edgeStyle=orthogonalEdgeStyle;rounded=0;orthogonalLoop=1;jettySize=auto;html=1;exitX=1;exitY=0.5;exitDx=0;exitDy=0;entryX=0.5;entryY=0;entryDx=0;entryDy=0;" parent="1" source="zhZFkxXowVwwZJKenLUL-36" target="zhZFkxXowVwwZJKenLUL-51" edge="1">
          <mxGeometry relative="1" as="geometry">
            <Array as="points">
              <mxPoint x="1591.29" y="221" />
              <mxPoint x="1591.29" y="530" />
              <mxPoint x="1471.29" y="530" />
            </Array>
            <mxPoint x="1471.29" y="550" as="targetPoint" />
          </mxGeometry>
        </mxCell>
        <mxCell id="zhZFkxXowVwwZJKenLUL-36" value="&lt;font style=&quot;font-size: 10px;&quot;&gt;for (int i = 0; i &amp;lt; arrayStr.Length; i++)&lt;/font&gt;" style="shape=hexagon;perimeter=hexagonPerimeter2;whiteSpace=wrap;html=1;fixedSize=1;" parent="1" vertex="1">
          <mxGeometry x="1367.17" y="192" width="205.75" height="58" as="geometry" />
        </mxCell>
        <mxCell id="zhZFkxXowVwwZJKenLUL-37" style="edgeStyle=orthogonalEdgeStyle;rounded=0;orthogonalLoop=1;jettySize=auto;html=1;exitX=0.5;exitY=1;exitDx=0;exitDy=0;entryX=0.5;entryY=0;entryDx=0;entryDy=0;" parent="1" source="zhZFkxXowVwwZJKenLUL-39" edge="1">
          <mxGeometry relative="1" as="geometry">
            <mxPoint x="1470.05" y="400" as="targetPoint" />
          </mxGeometry>
        </mxCell>
        <mxCell id="zhZFkxXowVwwZJKenLUL-48" style="edgeStyle=orthogonalEdgeStyle;rounded=0;orthogonalLoop=1;jettySize=auto;html=1;exitX=0;exitY=0.5;exitDx=0;exitDy=0;entryX=0.5;entryY=0;entryDx=0;entryDy=0;" parent="1" source="zhZFkxXowVwwZJKenLUL-39" target="zhZFkxXowVwwZJKenLUL-47" edge="1">
          <mxGeometry relative="1" as="geometry" />
        </mxCell>
        <mxCell id="zhZFkxXowVwwZJKenLUL-39" value="&lt;font style=&quot;font-size: 10px;&quot;&gt;if (i + 1 == arrayStr.Length)&lt;/font&gt;" style="rhombus;whiteSpace=wrap;html=1;" parent="1" vertex="1">
          <mxGeometry x="1396.67" y="300" width="146.75" height="80" as="geometry" />
        </mxCell>
        <mxCell id="zhZFkxXowVwwZJKenLUL-40" style="edgeStyle=orthogonalEdgeStyle;rounded=0;orthogonalLoop=1;jettySize=auto;html=1;entryX=0;entryY=0.5;entryDx=0;entryDy=0;" parent="1" target="zhZFkxXowVwwZJKenLUL-36" edge="1">
          <mxGeometry relative="1" as="geometry">
            <Array as="points">
              <mxPoint x="1221.29" y="510" />
              <mxPoint x="1221.29" y="221" />
            </Array>
            <mxPoint x="1470.29" y="510" as="sourcePoint" />
          </mxGeometry>
        </mxCell>
        <mxCell id="zhZFkxXowVwwZJKenLUL-42" value="конец" style="ellipse;whiteSpace=wrap;html=1;" parent="1" vertex="1">
          <mxGeometry x="1392.54" y="650" width="157.5" height="60" as="geometry" />
        </mxCell>
        <mxCell id="zhZFkxXowVwwZJKenLUL-43" value="yes" style="text;html=1;whiteSpace=wrap;overflow=hidden;rounded=0;align=left;" parent="1" vertex="1">
          <mxGeometry x="1475.29" y="373" width="30" height="20" as="geometry" />
        </mxCell>
        <mxCell id="zhZFkxXowVwwZJKenLUL-44" value="no" style="text;html=1;whiteSpace=wrap;overflow=hidden;rounded=0;align=left;" parent="1" vertex="1">
          <mxGeometry x="1311.29" y="373" width="30" height="20" as="geometry" />
        </mxCell>
        <mxCell id="zhZFkxXowVwwZJKenLUL-45" value="&lt;span style=&quot;font-size: 10px;&quot;&gt;Console.Write(&quot;[&quot;);&lt;/span&gt;" style="shape=document;whiteSpace=wrap;html=1;boundedLbl=1;" parent="1" vertex="1">
          <mxGeometry x="1373.79" y="100" width="195" height="70" as="geometry" />
        </mxCell>
        <mxCell id="zhZFkxXowVwwZJKenLUL-46" value="&lt;span style=&quot;font-size: 10px;&quot;&gt;Console.Write($&quot;\&quot;{arrayStr[i]}\&quot;&quot;);&lt;/span&gt;" style="shape=document;whiteSpace=wrap;html=1;boundedLbl=1;" parent="1" vertex="1">
          <mxGeometry x="1397.54" y="400" width="147.5" height="70" as="geometry" />
        </mxCell>
        <mxCell id="zhZFkxXowVwwZJKenLUL-47" value="&lt;span style=&quot;font-size: 10px;&quot;&gt;Console.Write($&quot;\&quot;{arrayStr[i]}\&quot;, &quot;);&lt;/span&gt;" style="shape=document;whiteSpace=wrap;html=1;boundedLbl=1;" parent="1" vertex="1">
          <mxGeometry x="1231.29" y="400" width="150.5" height="70" as="geometry" />
        </mxCell>
        <mxCell id="zhZFkxXowVwwZJKenLUL-49" value="" style="endArrow=classic;html=1;rounded=0;exitX=0.499;exitY=0.854;exitDx=0;exitDy=0;exitPerimeter=0;" parent="1" source="zhZFkxXowVwwZJKenLUL-47" edge="1">
          <mxGeometry width="50" height="50" relative="1" as="geometry">
            <mxPoint x="1306.29" y="470" as="sourcePoint" />
            <mxPoint x="1306.2" y="510" as="targetPoint" />
          </mxGeometry>
        </mxCell>
        <mxCell id="zhZFkxXowVwwZJKenLUL-50" value="" style="endArrow=classic;html=1;rounded=0;exitX=0.499;exitY=0.854;exitDx=0;exitDy=0;exitPerimeter=0;" parent="1" edge="1">
          <mxGeometry width="50" height="50" relative="1" as="geometry">
            <mxPoint x="1469.97" y="460" as="sourcePoint" />
            <mxPoint x="1469.88" y="510" as="targetPoint" />
          </mxGeometry>
        </mxCell>
        <mxCell id="zhZFkxXowVwwZJKenLUL-51" value="&lt;span style=&quot;font-size: 10px;&quot;&gt;Console.Write(&quot;]&quot;);&lt;/span&gt;" style="shape=document;whiteSpace=wrap;html=1;boundedLbl=1;" parent="1" vertex="1">
          <mxGeometry x="1397.54" y="560" width="147.5" height="70" as="geometry" />
        </mxCell>
        <mxCell id="zhZFkxXowVwwZJKenLUL-52" value="" style="endArrow=classic;html=1;rounded=0;" parent="1" edge="1">
          <mxGeometry width="50" height="50" relative="1" as="geometry">
            <mxPoint x="1470.29" y="620" as="sourcePoint" />
            <mxPoint x="1469.88" y="650" as="targetPoint" />
          </mxGeometry>
        </mxCell>
      </root>
    </mxGraphModel>
  </diagram>
</mxfile>
